<svg width="783" height="783" viewBox="0 0 783 783" fill="none" xmlns="http://www.w3.org/2000/svg">
<circle cx="391.5" cy="391.5" r="371.5" stroke="#ECF6F5" stroke-opacity="0.26" stroke-width="40"/>
<path d="M468.446 612.519H464.289C414.398 612.519 364.508 612.519 314.617 612.519C308.381 612.519 304.223 610.44 302.144 606.283C250.175 539.762 196.127 475.32 144.158 408.799C142.079 404.641 140 402.563 140 398.405C140 333.963 140 271.6 140 207.158C140 205.079 140 203 142.079 203H144.158C252.254 338.12 360.35 473.241 466.368 608.361C466.368 608.361 466.368 610.44 468.446 610.44V612.519Z" fill="#ECF6F5"/>
<path d="M634.765 408.799C620.213 427.508 603.583 446.217 589.032 467.005C584.874 471.162 580.716 473.241 576.559 473.241C526.668 473.241 476.778 473.241 428.966 473.241H426.887C424.808 473.241 422.73 471.162 424.808 469.083C424.808 469.083 424.808 467.005 426.887 467.005C476.778 404.641 524.59 344.357 574.48 281.993C595.268 257.048 616.056 230.024 634.765 205.079C634.765 203 636.843 203 638.922 203H641.001C641.001 205.079 641.001 205.079 641.001 207.158C641.001 269.521 641.001 333.963 641.001 396.326C638.922 402.562 636.843 406.72 634.765 408.799Z" fill="#ECF6F5"/>
</svg>
